<svg xmlns="http://www.w3.org/2000/svg" width="32" height="32" viewBox="0 0 32 32">
  <!-- Fundo transparente -->
  <rect width="32" height="32" fill="none"/>
  
  <!-- Ticket principal -->
  <path d="M4 10C4 8.89543 4.89543 8 6 8H26C27.1046 8 28 8.89543 28 10V22C28 23.1046 27.1046 24 26 24H6C4.89543 24 4 23.1046 4 22V10Z" fill="#00A8E8"/>
  
  <!-- Extremidades perfuradas do ticket -->
  <circle cx="9" cy="8" r="1.5" fill="white"/>
  <circle cx="14" cy="8" r="1.5" fill="white"/>
  <circle cx="19" cy="8" r="1.5" fill="white"/>
  <circle cx="24" cy="8" r="1.5" fill="white"/>
  
  <circle cx="9" cy="24" r="1.5" fill="white"/>
  <circle cx="14" cy="24" r="1.5" fill="white"/>
  <circle cx="19" cy="24" r="1.5" fill="white"/>
  <circle cx="24" cy="24" r="1.5" fill="white"/>
  
  <!-- Linha pontilhada central -->
  <line x1="16" y1="10" x2="16" y2="22" stroke="white" stroke-width="1.5" stroke-dasharray="2 2"/>
</svg>
